{
  "asset": {
    "generator": "gltfeditor.com",
    "version": "2.0"
  },
  "buffers": [
    {
      "uri": "data:application/octet-stream;base64,",
      "byteLength": 103776
    },
    {
      "uri": "data:application/octet-stream;base64,",
      "byteLength": 552
    },
    {
      "uri": "data:application/octet-stream;base64,",
      "byteLength": 552
    }
  ],
  "bufferViews": [
    {
      "buffer": 0,
      "byteOffset": 0,
      "byteLength": 29988,
      "byteStride": 12,
      "target": 34962
    },
    {
      "buffer": 0,
      "byteOffset": 29988,
      "byteLength": 29988,
      "byteStride": 12,
      "target": 34962
    },
    {
      "buffer": 0,
      "byteOffset": 59976,
      "byteLength": 19992,
      "byteStride": 8,
      "target": 34962
    },
    {
      "buffer": 0,
      "byteOffset": 79968,
      "byteLength": 23808,
      "target": 34963
    },
    {
      "buffer": 1,
      "byteOffset": 0,
      "byteLength": 480,
      "byteStride": 20,
      "target": 34962
    },
    {
      "buffer": 1,
      "byteOffset": 480,
      "byteLength": 72,
      "target": 34963
    },
    {
      "buffer": 2,
      "byteOffset": 0,
      "byteLength": 480,
      "byteStride": 20,
      "target": 34962
    },
    {
      "buffer": 2,
      "byteOffset": 480,
      "byteLength": 72,
      "target": 34963
    }
  ],
  "accessors": [
    {
      "bufferView": 0,
      "byteOffset": 0,
      "componentType": 5126,
      "normalized": false,
      "count": 2499,
      "min": [
        -0.9872310161590576,
        -0.9975767135620117,
        -0.9872310161590576
      ],
      "max": [
        0.9872313737869263,
        0.9975767135620117,
        0.9872314929962158
      ],
      "type": "VEC3"
    },
    {
      "bufferView": 1,
      "byteOffset": 0,
      "componentType": 5126,
      "normalized": false,
      "count": 2499,
      "min": [
        -1,
        -0.999969482421875,
        -1
      ],
      "max": [
        0.999969482421875,
        0.999969482421875,
        0.999969482421875
      ],
      "type": "VEC3"
    },
    {
      "bufferView": 2,
      "byteOffset": 0,
      "componentType": 5126,
      "normalized": false,
      "count": 2499,
      "min": [
        0,
        -1.1920928955078125e-7
      ],
      "max": [
        1.0000003576278687,
        1
      ],
      "type": "VEC2"
    },
    {
      "bufferView": 3,
      "byteOffset": 0,
      "componentType": 5123,
      "normalized": false,
      "count": 11904,
      "min": [
        0
      ],
      "max": [
        2498
      ],
      "type": "SCALAR"
    },
    {
      "bufferView": 4,
      "byteOffset": 0,
      "componentType": 5126,
      "count": 24,
      "min": [
        -1,
        -1,
        -1
      ],
      "max": [
        1,
        1,
        1
      ],
      "type": "VEC3"
    },
    {
      "bufferView": 4,
      "byteOffset": 12,
      "componentType": 5126,
      "count": 24,
      "min": [
        0,
        0
      ],
      "max": [
        1,
        1
      ],
      "type": "VEC2"
    },
    {
      "bufferView": 5,
      "byteOffset": 0,
      "componentType": 5123,
      "normalized": false,
      "count": 36,
      "min": [
        0
      ],
      "max": [
        23
      ],
      "type": "SCALAR"
    },
    {
      "bufferView": 6,
      "byteOffset": 0,
      "componentType": 5126,
      "count": 24,
      "min": [
        -1,
        -1,
        -1
      ],
      "max": [
        1,
        1,
        1
      ],
      "type": "VEC3"
    },
    {
      "bufferView": 6,
      "byteOffset": 12,
      "componentType": 5126,
      "count": 24,
      "min": [
        0,
        0
      ],
      "max": [
        1,
        1
      ],
      "type": "VEC2"
    },
    {
      "bufferView": 7,
      "byteOffset": 0,
      "componentType": 5123,
      "normalized": false,
      "count": 36,
      "min": [
        0
      ],
      "max": [
        23
      ],
      "type": "SCALAR"
    }
  ],
  "scene": 0,
  "scenes": [
    {
      "nodes": [
        0,
        1,
        2,
        3,
        4
      ],
      "name": "Scene"
    }
  ],
  "nodes": [
    {
      "name": "Light",
      "matrix": [
        -0.2908647358417511,
        -0.055189065635204315,
        -0.9551712274551392,
        0,
        0.566393256187439,
        0.7946722507476807,
        -0.21839122474193573,
        0,
        0.7711008787155151,
        -0.6045247912406921,
        -0.19988344609737396,
        0,
        4.076245307922363,
        5.903861999511719,
        -1.0054539442062378,
        1
      ]
    },
    {
      "name": "Camera",
      "matrix": [
        0.6859206557273865,
        -4.011331711240018e-9,
        -0.7276763319969177,
        0,
        0.6515582203865051,
        0.44527140259742737,
        0.6141703724861145,
        0,
        0.32401347160339355,
        -0.8953956365585327,
        0.3054208755493164,
        0,
        7.358891487121582,
        4.958309173583984,
        6.925790786743164,
        1
      ]
    },
    {
      "name": "Sphere",
      "matrix": [
        0.20000000298023224,
        0,
        0,
        0,
        0,
        0.20000000298023224,
        0,
        0,
        0,
        0,
        0.20000000298023224,
        0,
        3.700000047683716,
        11.699999809265137,
        1.7999999523162842,
        1
      ],
      "mesh": 0,
      "extensions": {
        "KHR_lights_punctual": {
          "light": 0
        }
      }
    },
    {
      "name": "Cube",
      "matrix": [
        -0.5042999982833862,
        1.3855520486831665,
        -1.0324372053146362,
        0,
        -1.183013916015625,
        -1.060768485069275,
        -0.8457232713699341,
        0,
        -1.2594281435012817,
        0.44160524010658264,
        1.2078183889389038,
        0,
        -1.899999976158142,
        1.399999976158142,
        0,
        1
      ],
      "mesh": 1
    },
    {
      "name": "Cube",
      "matrix": [
        1.1133410930633545,
        0.6427878141403198,
        -1.5320885181427002,
        0,
        0.08682378381490707,
        1.8192317485809326,
        0.8263520002365112,
        0,
        1.6591964960098267,
        -0.5265167355537415,
        0.984808087348938,
        0,
        1.499999761581421,
        6.300000190734863,
        0,
        1
      ],
      "mesh": 2
    }
  ],
  "meshes": [
    {
      "primitives": [
        {
          "material": 0,
          "mode": 4,
          "attributes": {
            "POSITION": 0,
            "NORMAL": 1,
            "TEXCOORD_0": 2
          },
          "indices": 3
        }
      ]
    },
    {
      "primitives": [
        {
          "material": 1,
          "mode": 4,
          "attributes": {
            "POSITION": 4,
            "TEXCOORD_0": 5
          },
          "indices": 6
        }
      ]
    },
    {
      "primitives": [
        {
          "material": 2,
          "mode": 4,
          "attributes": {
            "POSITION": 7,
            "TEXCOORD_0": 8
          },
          "indices": 9
        }
      ]
    }
  ],
  "materials": [
    {
      "name": "Material",
      "pbrMetallicRoughness": {
        "baseColorFactor": [
          0.8,
          0.8,
          0.8,
          1
        ],
        "metallicFactor": 0,
        "roughnessFactor": 1
      },
      "emissiveFactor": [
        0,
        0,
        0
      ],
      "alphaMode": "OPAQUE",
      "doubleSided": true,
      "extensions": {
        "KHR_materials_clearcoat": {
          "clearcoatFactor": 1,
          "clearcoatRoughnessFactor": 0
        }
      }
    },
    {
      "name": "",
      "pbrMetallicRoughness": {
        "baseColorFactor": [
          0.592156862745098,
          0.6274509803921569,
          0.6627450980392157,
          1
        ],
        "metallicFactor": 0,
        "roughnessFactor": 0.5
      },
      "emissiveFactor": [
        0,
        0,
        0
      ],
      "alphaMode": "OPAQUE",
      "doubleSided": false,
      "extensions": {
        "KHR_materials_volume": {
          "thicknessFactor": 1,
          "attenuationColor": [
            1,
            1,
            1
          ],
          "attenuationDistance": null
        }
      }
    },
    {
      "name": "",
      "pbrMetallicRoughness": {
        "baseColorFactor": [
          0.5294117647058824,
          0.5294117647058824,
          0.5294117647058824,
          1
        ],
        "metallicFactor": 0,
        "roughnessFactor": 0.5
      },
      "emissiveFactor": [
        0,
        0,
        0
      ],
      "alphaMode": "MASK",
      "doubleSided": false,
      "alphaCutoff": 0.5,
      "extensions": {
        "KHR_materials_volume": {
          "thicknessFactor": 1,
          "attenuationColor": [
            1,
            1,
            1
          ],
          "attenuationDistance": null
        }
      }
    }
  ],
  "extensionsUsed": [
    "KHR_materials_clearcoat",
    "KHR_lights_punctual",
    "KHR_materials_volume"
  ],
  "extensionsRequired": [
    "KHR_lights_punctual"
  ],
  "extensions": {
    "KHR_lights_punctual": {
      "lights": [
        {
          "name": "",
          "type": "point"
        }
      ]
    }
  }
}